/* XPM */
static char *Free_Converter_com_bitcoin32_20545819[] = {
/* columns rows colors chars-per-pixel */
"32 32 157 2 ",
"   c #68A031",
".  c #69A134",
"X  c #6BA336",
"o  c #6EA43A",
"O  c #71A73F",
"+  c #72A63F",
"@  c #74A742",
"#  c #73A842",
"$  c #74A842",
"%  c #75A843",
"&  c #75A943",
"*  c #75A844",
"=  c #76A944",
"-  c #76A945",
";  c #77A945",
":  c #76AA45",
">  c #77A946",
",  c #77AA46",
"<  c #77AA47",
"1  c #78AA47",
"2  c #78AB47",
"3  c #78AA48",
"4  c #78AB48",
"5  c #79AB48",
"6  c #79AB49",
"7  c #7AAB4B",
"8  c #7AAC4B",
"9  c #7BAC4C",
"0  c #7BAC4D",
"q  c #7BAD4D",
"w  c #7CAC4C",
"e  c #7CAD4D",
"r  c #7CAD4E",
"t  c #7DAD4E",
"y  c #7DAD4F",
"u  c #7DAE4F",
"i  c #7EAE4F",
"p  c #7EAE50",
"a  c #7FAE50",
"s  c #7FAE51",
"d  c #7EAF51",
"f  c #7FAF51",
"g  c #7FAF52",
"h  c #80AF52",
"j  c #81AF52",
"k  c #80AF53",
"l  c #81AF53",
"z  c #81AF54",
"x  c #80B053",
"c  c #81B053",
"v  c #81B054",
"b  c #81B154",
"n  c #81B055",
"m  c #82B054",
"M  c #82B154",
"N  c #82B055",
"B  c #82B155",
"V  c #82B255",
"C  c #82B156",
"Z  c #83B157",
"A  c #84B258",
"S  c #84B259",
"D  c #85B259",
"F  c #85B25A",
"G  c #86B35A",
"H  c #86B35B",
"J  c #87B35B",
"K  c #88B45D",
"L  c #88B45E",
"P  c #8AB561",
"I  c #8AB660",
"U  c #8DB865",
"Y  c #8EB967",
"T  c #90B968",
"R  c #90BA68",
"E  c #91BA6A",
"W  c #91BB6B",
"Q  c #92BB6B",
"!  c #93BB6C",
"~  c #95BD70",
"^  c #96BD72",
"/  c #97BE72",
"(  c #98BF74",
")  c #99BF74",
"_  c #9BBF77",
"`  c #9AC076",
"'  c #9CC279",
"]  c #9EC27A",
"[  c #A0C37D",
"{  c #A0C37E",
"}  c #A0C47E",
"|  c #A5C685",
" . c #A5C785",
".. c #A8C889",
"X. c #ABCA8D",
"o. c #AECC91",
"O. c #B1CE95",
"+. c #B2CF96",
"@. c #B2CF97",
"#. c #B3CF98",
"$. c #B4D099",
"%. c #B6D09B",
"&. c #B6D19B",
"*. c #B7D29D",
"=. c #B7D29E",
"-. c #B9D3A0",
";. c #BAD3A1",
":. c #BAD4A2",
">. c #BCD5A4",
",. c #BDD6A5",
"<. c #BFD7A8",
"1. c #C0D8AA",
"2. c #C1D8AA",
"3. c #C2D9AC",
"4. c #C3D9AD",
"5. c #C7DCB3",
"6. c #CADEB7",
"7. c #CADEB8",
"8. c #CFE1BD",
"9. c #D1E2BF",
"0. c #D2E3C2",
"q. c #D3E3C3",
"w. c #D5E4C5",
"e. c #D8E6C9",
"r. c #DAE8CC",
"t. c #DAE8CD",
"y. c #DBE8CE",
"u. c #DEEAD2",
"i. c #DFEBD3",
"p. c #E3EDD8",
"a. c #E4EEDA",
"s. c #E4EEDB",
"d. c #E7F1DF",
"f. c #E9F1E1",
"g. c #E9F1E2",
"h. c #EBF2E4",
"j. c #EDF3E6",
"k. c #EEF4E8",
"l. c #F0F5EA",
"z. c #F1F6EB",
"x. c #F2F6EC",
"c. c #F2F7ED",
"v. c #F3F8EF",
"b. c #F4F8EF",
"n. c #F6F9F3",
"m. c #F7FAF3",
"M. c #F7FAF4",
"N. c #F8FAF5",
"B. c #F8FBF6",
"V. c #FAFCF7",
"C. c #FCFDFB",
"Z. c #FDFEFC",
"A. c #FEFEFD",
"S. c #FEFEFE",
"D. c #FEFFFE",
"F. c gray100",
"G. c None",
/* pixels */
"G.G.G.G.G.G.G.G.G.G.G.G.G.G.v v v v G.G.G.G.G.G.G.G.G.G.G.G.G.G.",
"G.G.G.G.G.G.G.G.G.G.G.v v v v v v v v v v G.G.G.G.G.G.G.G.G.G.G.",
"G.G.G.G.G.G.G.G.v v v v v v v v v v v v v v v v G.G.G.G.G.G.G.G.",
"G.G.G.G.G.G.G.v v v v v v v v v v v v v v v v v v G.G.G.G.G.G.G.",
"G.G.G.G.G.G.v v v v v v v v v v v v v v v v v v v v G.G.G.G.G.G.",
"G.G.G.G.G.v v v z z i ; i x v v v v v v v v v v v v v G.G.G.G.G.",
"G.G.G.G.v v v v v i ) $.Y i l v v v v v v v v v v v v v G.G.G.G.",
"G.G.G.v v v v v v ; w.F.C.8.6 v v v v v v v v v v v v v v G.G.G.",
"G.G.v v v v v v g v c.F.F.8.* v v v v v z g ; 6 v v v v v v G.G.",
"G.G.v v v v v v 8 ) F.F.F. .; v v v v v g I =.^ x x v x v v G.G.",
"G.G.v v v v v v ; -.F.F.V.I i v v v v v @ O.F.F.d.A l x v v G.G.",
"G.v v v v v v v 6 t.F.F.i.< l v v v v z * q.F.F.k.x l x v v v G.",
"G.v v v v v 6 O g m.F.F.<.$ v v v v v g v z.F.F.,.. 2 i Z x x G.",
"G.v v v v i  .-.7.F.F.F.' 2 v v v v v 6 ) F.F.F.q.-.5.^ i x v G.",
"v v v v i K F.F.F.F.F.c.A g l v v v v $ -.F.F.F.F.F.F.U i v v v ",
"v v v v i R 1.@.z.F.F.e.; v v v v v z 6 y.F.F.f.X.X.' g l x x Z ",
"v v v v l 2 . g M.F.F.=.; v v v v v i A m.F.F.=.  6 6 v v v v v ",
"v v v i I i.a.j.F.F.F.^ 6 v v v v v 6 } F.F.F.j.f.a.A g v v v v ",
"G.v v ; O.F.F.F.F.F.c.A g g v v v v $ 4.F.F.F.F.F.6.6 z v v v G.",
"G.v v g Y ! v 1.F.F.m.Z g z v v v l 6 p.F.F.y.z K g g z v v v G.",
"G.v v v g 9 @ ] F.F.F.o.o g v v v ; E C.F.F.=.O g v v v v v v G.",
"G.G.v v v v l g h.F.F.M...6 # ; O i i.F.F.F.! 8 v v v v v v G.G.",
"G.G.v v v v z 6 ) F.F.F.F.a.4.O.>.f.F.F.F.q.< z v v v v v v G.G.",
"G.G.Z v v v z z 2 [ c.F.F.F.F.F.F.F.F.F.f.A g g v v v v v v G.G.",
"G.G.G.v v v v v v 6 J <.k.F.F.F.F.F.C.q.A i v v v v v v v G.G.G.",
"G.G.G.G.v v v v v Z d ; g ` $.1.4.@.E 6 i v v v v v v v G.G.G.G.",
"G.G.G.G.G.v v v v v v v g 6 2 ; ; ; 8 v l v v v v v v G.G.G.G.G.",
"G.G.G.G.G.G.v v v v v v x x v v v g v v v v v v v v G.G.G.G.G.G.",
"G.G.G.G.G.G.G.v v v v v v v v v v v v v v v v v v G.G.G.G.G.G.G.",
"G.G.G.G.G.G.G.G.v v v v v v v v v v v v v v v v G.G.G.G.G.G.G.G.",
"G.G.G.G.G.G.G.G.G.G.G.v v v v v v v v v v G.G.G.G.G.G.G.G.G.G.G.",
"G.G.G.G.G.G.G.G.G.G.G.G.G.G.Z v v v G.G.G.G.G.G.G.G.G.G.G.G.G.G."
};
