/* XPM */
static char *Free_Converter_com_bitcoin64_86925820[] = {
/* columns rows colors chars-per-pixel */
"64 64 53 1 ",
"  c #6BA236",
". c #6DA43A",
"X c #72A63F",
"o c #73A741",
"O c #76A945",
"+ c #78AA47",
"@ c #7BAC4C",
"# c #7FAE51",
"$ c #80AF53",
"% c #81B054",
"& c #86B35A",
"* c #89B55F",
"= c #8BB661",
"- c #8FB866",
"; c #8FB968",
": c #90B967",
"> c #92BB6C",
", c #97BE71",
"< c #99BF75",
"1 c #9CC177",
"2 c #9DC17A",
"3 c #A0C37E",
"4 c #A4C684",
"5 c #AACA8C",
"6 c #AECD91",
"7 c #B1CE94",
"8 c #B3CF98",
"9 c #B5D09A",
"0 c #B8D29F",
"q c #BCD5A4",
"w c #C0D7A8",
"e c #C1D8AB",
"r c #C6DBB2",
"t c #C9DDB5",
"y c #CCDFB9",
"u c #CEE0BD",
"i c #D0E2BF",
"p c #D4E4C5",
"a c #D7E6C9",
"s c #D8E7CA",
"d c #DBE9CE",
"f c #DEEAD2",
"g c #E1ECD6",
"h c #E4EEDA",
"j c #E6F0DD",
"k c #EBF2E4",
"l c #EFF5E9",
"z c #F2F7ED",
"x c #F4F8EF",
"c c #F6F9F2",
"v c #F9FBF6",
"b c #FFFFFF",
"n c None",
/* pixels */
"nnnnnnnnnnnnnnnnnnnnnnnnnnnnnn%%&%nnnnnnnnnnnnnnnnnnnnnnnnnnnnnn",
"nnnnnnnnnnnnnnnnnnnnnnnnn%%%%%%%%%%%%%%nnnnnnnnnnnnnnnnnnnnnnnnn",
"nnnnnnnnnnnnnnnnnnnnn%%%%%%%%%%%%%%%%%%%%%%nnnnnnnnnnnnnnnnnnnnn",
"nnnnnnnnnnnnnnnnnnn%%%%%%%%%%%%%%%%%%%%%%%%%%nnnnnnnnnnnnnnnnnnn",
"nnnnnnnnnnnnnnnnn%%%%%%%%%%%%%%%%%%%%%%%%%%%%%%nnnnnnnnnnnnnnnnn",
"nnnnnnnnnnnnnnn%%%%%%%%%%%%%%%%%%%%%%%%%%%%%%%%#%nnnnnnnnnnnnnnn",
"nnnnnnnnnnnnnn%%%%%%$%%%%%%%%%%%%%%%%%%%%%%%%%%%%%nnnnnnnnnnnnnn",
"nnnnnnnnnnnn%%%%%%%%%%%%%%%%%%%%%%%%%%%%%%%%%%%%%%%%nnnnnnnnnnnn",
"nnnnnnnnnnn%%%%%%%%%%%%%%$%%%%%%%%%%%%%%%%%%%%%%%%%%%nnnnnnnnnnn",
"nnnnnnnnnn%%%%%%%%%$%%%%%%%%%%$%%%%%%%%%%%%%%%%%%%%%%%nnnnnnnnnn",
"nnnnnnnnn%%%%%%%%%%%%$%%%%%%%%%%%%%%%%%%%%%%%%%%%%%%%%&nnnnnnnnn",
"nnnnnnnn%%%%%%%%%%%%%@@#%%%%%%%%%%%%%%%%%%%%%%%%%%%%%%%%nnnnnnnn",
"nnnnnnn%%%%%%%%%%%%%#21%O+#$%%%%%%%%%%%%%%%%%%%%%%%%%%%%%nnnnnnn",
"nnnnnnn%%%%%%%%%%%%@,bblu6-@%%%%%%%%%#%%#%%%%%%%%%%%%%%%%nnnnnnn",
"nnnnnn%%%%%%%%%%%%%o0bbbbbv7O%%%%%%%%%%%%%%%%%%%%%%%%%%%%%nnnnnn",
"nnnnn%%%%%%%%%%%%%%@abbbbbbqO%$%%%%%%%%%%%%%%%%%%%%%%%%%%%%nnnnn",
"nnnnn%%%%%%%%%%%%%#&cbbbbbb,@%%%%%%%%%%%$%%%$$%%%%%%%%%%%%%nnnnn",
"nnnn%%%%%%%%%%%%%%@2bbbbbbk%#%%%%%%%%%%%%%%%@#%#%%%%%%%%$%%%nnnn",
"nnnn%%%%%%%%%%%$%%OebbbbbbuO%%%%%#%%%%%%%%%#>=@O@#%%%%%$%%%%nnnn",
"nnn%%%%%%%%%%%%%%%@gbbbbbb6O%%%%%%%%%%%%%%+2bvfq1%#%%%%%%%%%%nnn",
"nnn%%%%%%%%%%%%%%#=vbbbbbb-@%%%%%%%%%%%%%%Orbbbbbl1@%%%%%%%%%nnn",
"nn%%%%%%%%%%%%%%%O5bbbbbbh##%%%$%%%%%%%%%$@hbbbbbb6O%%%%%%%%%%nn",
"nn%%%%%%%%%%%%%%%Otbbbbbbto%%%%%%%%%%%%%%@-vbbbbbv-#%%%%%%%%%%nn",
"nn%%%%%%%%$%%%%$$#kbbbbbb4O%%%%%%%%%%%%%%O5bbbbbbh#%%%%%%%%%%%nn",
"nn%%%%%%%%%%%%%$@;bbbbbbv*@%%%%%%%%%%%%%%OubbbbbbeO%%%%%%%%%%%nn",
"n&%%%%%%%%%%####o7bbbbbbf@%%%%%%%%%%%%%%##kbbbbbb2O#@+@%%%%%%%%n",
"n%%%%%%%%%%%$&&=%pbbbbbbqO%%%%%%%%%%#%%%@>bbbbbbc;=;><2&%%%%%%%n",
"n%%%%%%%%%%@pcccvbbbbbbb1O%%%%$%%%%%%%%%O9bbbbbbbvvvbbx%#%%%%%%n",
"n%%%%%%%%%@:bbbbbbbbbbbz%%%%%%%%%%%%%%%%OpbbbbbbbbbbbbtO%%%%%%%n",
"n%%%%%%%%%+0bbbbbbbbbbbpO%%%%%%%%%%%%%%#&zbbbbbbbbbbbb2@%%%%%%%n",
"%%%%%%%%%%@dclkhvbbbbbb7O%%%%%%%%%%%%%%+2bbbbbbvhfdppr%%%%%%%%%%",
"%%%%%%%%%%%=*%@%xbbbbbb,@%%%%%%%%%%%%%#Oqbbbbbbpo@@@+O%%%%%%%%%%",
"%%%%%%%%%%$###O4bbbbbbk##%%%#%%%%%%%%%%@fbbbbbb7O%$$%$%%%%%$%%%%",
"%%%%%%%%%@oOOO ebbbbbbyO%%%%%%%%%%%%%%@=vbbbbbv&XO+#$#%%%%%%%%%%",
"n%%%%%%%#>rttyyzbbbbbb5O%%%%%%%%%%%%%%O4bbbbbbvppsdh5@%%%%%%%%%n",
"n%%%%%%%Oybbbbbbbbbbbv-@%%%%%%%%%%%%%%Orbbbbbbbbbbbb;#%%%%%%%%%n",
"n%%%%%%#%zbbbbbbbbbbbk##%%%%%%%%%%%%%#@jbbbbbbbbbbbf@$%%%%%%%%%n",
"n%%%%%%O5bbbbbbbbbbbbg@%%%%%%%%%%%%%%@-bbbbbbbbbbvv6O%%%%%%%%%%n",
"n%%%%%%@20543,8bbbbbbh@#%%%%%%%%%%%%%O6bbbbbbj,,>-*$%%%%%%%%%%%n",
"nn%%%$%%#OO@+o;bbbbbbz&#%%%%%%%%$%%%%Oybbbbbbe.@@###%%%%%%%%%%nn",
"nn%%%%%%%%%%%#&cbbbbbb4O%%%%%%%%%%%%@&zbbbbbb3+%%%%%%%%%%%%%%%nn",
"nn%%%%%%%%%%%#+abbbbbbh+#%%%%%%%%%%%o6bbbbbbc&#$%%%%%%%%%%%%%%nn",
"nn%%%%%%%%%%%%+5bbbbbbbyOO$%%%%%%%%@&zbbbbbbs@%%%%%%%%%%%%%%%%nn",
"nnn%%%%%%%%%%%##jbbbbbbbd;oO##%%%#o#fbbbbbbb5O%%%%%%%%%%%%%%%nnn",
"nnn&%%%%%%%%%%#@<bbbbbbbbbu4&@+O+$4kbbbbbbbl%#%%%%%%%%%%%%%%%nnn",
"nnnn%%%%%%%%%%%%O9bbbbbbbbbbcgapdlbbbbbbbbb5O%%%%%%%%%%%%%%%nnnn",
"nnnn%%%%%%%%%%%%$+qbbbbbbbbbbbbbbbbbbbbbbbpO%%%%%%%%%%%%%%%%nnnn",
"nnnnn%%%%%%%%%%%%$O5vbbbbbbbbbbbbbbbbbbbbg##%%%%%%%%%%%%%%%nnnnn",
"nnnnn%%%%%%%%%%%%%%O=ubbbbbbbbbbbbbbbbbbp%@%%%%%%%%%%%%%%%%nnnnn",
"nnnnnn%%%%%%%%%%%%%%#+,txbbbbbbbbbbbbbz6@#%%%%%%%%%%%%%%%%nnnnnn",
"nnnnnnn%%%%%%%%%%%%%%%@O&4rjcbbbbbbcf8&O#%%%%%%%%%%%%%%%%nnnnnnn",
"nnnnnnn%%%%%%%%%%%%%%%#%#OO#=<57752*@O#%%%%%%%%%%%#%%%%%%nnnnnnn",
"nnnnnnnn%%%%%%%%%%%%%%%%%%%%#@O+++@#%%%%%%%%%%%%%%%%%%%%nnnnnnnn",
"nnnnnnnnn%%%%%%%%%%%%%%%%%%%%#%%%%%#%%%%%%%%%%%%%%%%%%%nnnnnnnnn",
"nnnnnnnnnn%%%%%%%%%%%%%%%%%%%%%%%%%%%%%%%%%%%%%%%%%%%%nnnnnnnnnn",
"nnnnnnnnnnn%%%%%%%%%%%%%%%%%%%%%%%%%%%%%%%%%%%%%%%%%%nnnnnnnnnnn",
"nnnnnnnnnnnn%%%%%%%%%%%%%%%%%%%%%%%%%%%%%%%%%%%%%%%%nnnnnnnnnnnn",
"nnnnnnnnnnnnnn%%%%%%%%%%%%%%%%%%%%%%%%%%%%%%%%%%%%nnnnnnnnnnnnnn",
"nnnnnnnnnnnnnnn%%%%%%%%%%%%%%%%%%%%%#%%%%%%%%%%%&nnnnnnnnnnnnnnn",
"nnnnnnnnnnnnnnnnn%%%%%%%%%%%%%%%%%%%%%%%%%%%%%%nnnnnnnnnnnnnnnnn",
"nnnnnnnnnnnnnnnnnnn%%%%%%%%%%%%%%%%%%%%%%%%%%nnnnnnnnnnnnnnnnnnn",
"nnnnnnnnnnnnnnnnnnnnn%%%%%%%%%%%%%%%%%%%%%%nnnnnnnnnnnnnnnnnnnnn",
"nnnnnnnnnnnnnnnnnnnnnnnnn%%%%%%%%%%%%%%nnnnnnnnnnnnnnnnnnnnnnnnn",
"nnnnnnnnnnnnnnnnnnnnnnnnnnnnnn%%&%nnnnnnnnnnnnnnnnnnnnnnnnnnnnnn"
};
