/* XPM */
static char *Free_Converter_com_bitcoin16_61925819[] = {
/* columns rows colors chars-per-pixel */
"16 16 91 1 ",
"  c #6EA43A",
". c #72A740",
"X c #74A843",
"o c #75A843",
"O c #76A944",
"+ c #76A945",
"@ c #76A946",
"# c #77A946",
"$ c #77AA47",
"% c #78AA48",
"& c #78AB48",
"* c #78AB49",
"= c #79AB49",
"- c #79AB4A",
"; c #7AAB4A",
": c #7AAC4A",
"> c #7AAC4B",
", c #7BAC4C",
"< c #7BAD4C",
"1 c #7BAD4D",
"2 c #7CAC4C",
"3 c #7CAD4D",
"4 c #7CAD4E",
"5 c #7DAD4E",
"6 c #7EAE4F",
"7 c #7EAE50",
"8 c #7FAE51",
"9 c #7EAF51",
"0 c #7FAF51",
"q c #7FAF52",
"w c #80AF52",
"e c #80AF53",
"r c #81AF53",
"t c #80B053",
"y c #81B053",
"u c #81B054",
"i c #81B055",
"p c #82B054",
"a c #82B055",
"s c #82B155",
"d c #83B156",
"f c #84B157",
"g c #84B258",
"h c #89B55F",
"j c #8DB764",
"k c #8EB865",
"l c #90B968",
"z c #92BA6A",
"x c #92BB6B",
"c c #96BC70",
"v c #97BE72",
"b c #9BC076",
"n c #9DC279",
"m c #9EC27C",
"M c #A1C480",
"N c #A1C580",
"B c #A5C785",
"V c #A6C786",
"C c #A9C98B",
"Z c #ADCB90",
"A c #AECC90",
"S c #AFCD92",
"D c #AFCD93",
"F c #B3CF97",
"G c #B7D29E",
"H c #BBD4A3",
"J c #C1D8AB",
"K c #C2D9AC",
"L c #C5DBB1",
"P c #C6DBB1",
"I c #CBDEB8",
"U c #CCDFB9",
"Y c #CEE0BC",
"T c #D0E2BF",
"R c #D1E2C0",
"E c #D9E7CB",
"W c #E7F0DE",
"Q c #EBF2E4",
"! c #EBF3E4",
"~ c #EFF5E9",
"^ c #F0F6EB",
"/ c #F1F6EC",
"( c #F6F9F3",
") c #F7FAF4",
"_ c #F8FBF6",
"` c #F9FBF6",
"' c #FBFDFA",
"] c #FCFDFA",
"[ c #FEFEFE",
"{ c gray100",
"} c None",
/* pixels */
"}}}}}}}uu}}}}}}}",
"}}}}uuuuuuuu}}}}",
"}}}uu>:uuuuuu}}}",
"}}uu1AA8uuu8uu}}",
"}uur8]~:uufhwuu}",
"}uuOz{KXuOV_bOu}",
"}u8kL{n*uOU{Fj8}",
"uu1J')g8u1!^Im3u",
"u3vH`E$u1l{QV>ru",
"}1MR{L u.Z{TC1u}",
"}u>+^)xO3W{8Ouu}",
"}ur>c^{Q_{G>uuu}",
"}}uu1uFUIM>uuu}}",
"}}}uurOOO>ruu}}}",
"}}}}uuuuruuu}}}}",
"}}}}}}}ug}}}}}}}"
};
