/* XPM */
static char *Free_Converter_com_bitcoin128_13775820[] = {
/* columns rows colors chars-per-pixel */
"128 128 56 1 ",
"  c #6CA237",
". c #6FA43B",
"X c #72A73F",
"o c #72A740",
"O c #76A945",
"+ c #78AA47",
"@ c #7BAC4B",
"# c #7FAF51",
"$ c #7FB052",
"% c #80AF53",
"& c #81B054",
"* c #85B359",
"= c #89B55E",
"- c #8CB762",
"; c #8EB865",
": c #90B967",
"> c #92BA6B",
", c #96BD71",
"< c #98BF73",
"1 c #9BC076",
"2 c #9DC27A",
"3 c #A0C37E",
"4 c #A4C683",
"5 c #A7C887",
"6 c #A7C888",
"7 c #ABCA8D",
"8 c #AECC91",
"9 c #B1CE95",
"0 c #B3CF98",
"q c #B6D19B",
"w c #B8D29E",
"e c #BBD5A3",
"r c #BFD7A8",
"t c #C2D9AD",
"y c #C6DBB1",
"u c #C9DDB6",
"i c #CCDFB9",
"p c #CEE0BC",
"a c #D0E1BF",
"s c #D4E4C4",
"d c #D7E6C8",
"f c #D8E7CB",
"g c #DBE8CE",
"h c #DDEAD1",
"j c #E1ECD6",
"k c #E4EEDB",
"l c #E7F0DE",
"z c #E8F1DF",
"x c #EBF2E4",
"c c #EEF4E8",
"v c #F1F6EC",
"b c #F4F8EF",
"n c #F6F9F2",
"m c #F8FBF6",
"M c #FFFFFF",
"N c None",
/* pixels */
"NNNNNNNNNNNNNNNNNNNNNNNNNNNNNNNNNNNNNNNNNNNNNNNNNNNNNNNNNNNNNNNNNNNNNNNNNNNNNNNNNNNNNNNNNNNNNNNNNNNNNNNNNNNNNNNNNNNNNNNNNNNNNNNN",
"NNNNNNNNNNNNNNNNNNNNNNNNNNNNNNNNNNNNNNNNNNNNNNNNNNNNNN*&&&&&&&&&&&&&&&&&&&NNNNNNNNNNNNNNNNNNNNNNNNNNNNNNNNNNNNNNNNNNNNNNNNNNNNNN",
"NNNNNNNNNNNNNNNNNNNNNNNNNNNNNNNNNNNNNNNNNNNNNNNNN&*&&&&&&&&&&&&&&&&&&&&&&&&**&&NNNNNNNNNNNNNNNNNNNNNNNNNNNNNNNNNNNNNNNNNNNNNNNNN",
"NNNNNNNNNNNNNNNNNNNNNNNNNNNNNNNNNNNNNNNNNNNNN&&&&&&&&&&&&&&&&&&&&&&&&&&&&&&&&&&&&*&NNNNNNNNNNNNNNNNNNNNNNNNNNNNNNNNNNNNNNNNNNNNN",
"NNNNNNNNNNNNNNNNNNNNNNNNNNNNNNNNNNNNNNNNNN&*&&&&&&&&&&&&&&&&&&&&&&&&&&&&&&&&&&&&&&&&&&NNNNNNNNNNNNNNNNNNNNNNNNNNNNNNNNNNNNNNNNNN",
"NNNNNNNNNNNNNNNNNNNNNNNNNNNNNNNNNNNNNNNN&&&&&&&&&&&&&&&&&&&&&&&&&&&&&&&&&&&&&&&&&&&&&&&&NNNNNNNNNNNNNNNNNNNNNNNNNNNNNNNNNNNNNNNN",
"NNNNNNNNNNNNNNNNNNNNNNNNNNNNNNNNNNNNN&&&&&&&&&&&&&&&&&&&&&&&&&&&&&&&&&&&&&&&&$&&&&&&&&&&&&*NNNNNNNNNNNNNNNNNNNNNNNNNNNNNNNNNNNNN",
"NNNNNNNNNNNNNNNNNNNNNNNNNNNNNNNNNNN*&&&&&&&&&&&&&&&&&&&&&$&&&&&&&&&&&&&&&&&&&&&&&&&&&&&&&&&&&NNNNNNNNNNNNNNNNNNNNNNNNNNNNNNNNNNN",
"NNNNNNNNNNNNNNNNNNNNNNNNNNNNNNNNN*&&&&&&&&&%&&&&&&&&&&&&&&&&&&&&&&&&&&&&&&&&&&&&&&&&&&&&&&&&&&*NNNNNNNNNNNNNNNNNNNNNNNNNNNNNNNNN",
"NNNNNNNNNNNNNNNNNNNNNNNNNNNNNNNN&&&&&&&&&&&&&&&&&&&&&&&&&&&&&&&&&&&&&&&&&&&&&&&&&&&&&&&&&&&&&&&&NNNNNNNNNNNNNNNNNNNNNNNNNNNNNNNN",
"NNNNNNNNNNNNNNNNNNNNNNNNNNNNNN&&&&&&&&&&&&&&&&&&&&&&&&&&&&&&&&&&&&&&&&&&&&&&&&&&&&&&&&&&&&&&&&%&&*NNNNNNNNNNNNNNNNNNNNNNNNNNNNNN",
"NNNNNNNNNNNNNNNNNNNNNNNNNNNNN&&&&&&&&&&&&&&&&&&&&&&&&&&&&&&&&&&&&&$&&&&&&&&&&&&&&&&&&&&&&&&&&&&&&&&NNNNNNNNNNNNNNNNNNNNNNNNNNNNN",
"NNNNNNNNNNNNNNNNNNNNNNNNNNN&&&&&&&&&&&&&&&&&&&&&&&&&&$&&&&&&&&&&&&&&&&&&&&&&&&&&&&&&&&&&&&&&&&&&&&&&&NNNNNNNNNNNNNNNNNNNNNNNNNNN",
"NNNNNNNNNNNNNNNNNNNNNNNNNN&&&&&&&&%&&&&&&&&&%&&&&&&&&&&&&&&&&&&&&&&&&&&&&&&&&&$&&&&&&&&&&&&&&&&&&&&&&&NNNNNNNNNNNNNNNNNNNNNNNNNN",
"NNNNNNNNNNNNNNNNNNNNNNNN*&&&&&&&&&&&&&&&&&&&&&&&&&&&&&&&&&&&&&&&&&&&&&&&&&&&&&&&&&&&&$&&&&&&&&&&&&&&&&&&NNNNNNNNNNNNNNNNNNNNNNNN",
"NNNNNNNNNNNNNNNNNNNNNNN&&&&&&&&&&&&&&&%&&&&&&&&&&&&&&&&&&&&$&&&&&&&&&&&&&&&&&&&&&&&&&&&&&&&&&&&&&&&&&&&&&NNNNNNNNNNNNNNNNNNNNNNN",
"NNNNNNNNNNNNNNNNNNNNNN&&&&&&&&&&&&&&&&&&&&%&&&&&&&&&&&&&&&&&&&&&&&&&&&&&&&&&&&&&&&&&&&&&&&&&&&&&&&&&&&&&&&NNNNNNNNNNNNNNNNNNNNNN",
"NNNNNNNNNNNNNNNNNNNNN&&&&&&&&&&&&%&&&&&&&&&&&&&&&&&&&&&&&&&&&&&&&&&&&&&&&&&&&&&&&&&&&&&&&&&&&&&&&&&&&&&&&&*NNNNNNNNNNNNNNNNNNNNN",
"NNNNNNNNNNNNNNNNNNNN&&&&&&&&&&&&&&&&&&&&&&&&&&&&&&&&&&&&&&&&&%&&&&&&&&&&&&&&&&&&&&&&&&&&&&&&&&&&&&&&&&&&&&&&NNNNNNNNNNNNNNNNNNNN",
"NNNNNNNNNNNNNNNNNNN&&&&&&&&&&&&&&&&&&&&&&&&&&&&&&&&&&&&&&&&&&&&&&&&&&&&$&&$&&&&&&&&&&$&&&&&&&%&&&&&&&&&&&&&&&NNNNNNNNNNNNNNNNNNN",
"NNNNNNNNNNNNNNNNNN&&&&&&&&&&&&&&&&&&&&&&&&&&&&%&&&&&&&&&&&&&&&&&&&&&&&&&&&&&&&&&&&&&&&&&%&&&&&&&&&&&&&&&&&&&&&NNNNNNNNNNNNNNNNNN",
"NNNNNNNNNNNNNNNNN*&&&&&&&&&&&&&&&&&&&&&&&&&&&&&&&&&&$&&&&&&&&&&&&&&&&&&&&&&&&&&&&&&&&&&&&&&&&&&&&&&&&&&&&&&&&&&NNNNNNNNNNNNNNNNN",
"NNNNNNNNNNNNNNNN&&&&&&&&&&&&&&&&&&&&%&&&&&&%&&&&&&&&&&&&&&&&&&&&&&&&&&&&&&&&&&&&&&&&&&&&&&&&&&&&&&&&&&&&&&&&&&&&NNNNNNNNNNNNNNNN",
"NNNNNNNNNNNNNNN*&&&&&&&&&&&&&&&&&&&&&&&&&&&#&&&&&&&&&&&&&&&&&&&&&&&&&&&&&&&&&&&&&&&&&&&&&&&&&&&&&&&&&&&&&&&&&&&&*NNNNNNNNNNNNNNN",
"NNNNNNNNNNNNNN&&&&&&&&&&&&&&&&&&&&&&%&&&&#@&#O+#&&&&&&&&&&&&&&&&&&&&&&&&&&&&&%&&&&&&&&&&&&&&&&&%&$&&&&&&&&&&&&&&$*NNNNNNNNNNNNNN",
"NNNNNNNNNNNNNN&&&&&&&&&&&&&&&&&&&&&&&&&&#*svjr<*+O@$&&&&&&&&&&&&&&&&&&&&&&&&&&&&&&&&&&&&&&&&&&&&&&&&&&&&&&&&&&&&&&NNNNNNNNNNNNNN",
"NNNNNNNNNNNNN&&&&&&&&&&&&&&&&&&&&&&&&&&&OeMMMMMvs0,$O+#&&&&&&&&&&&&&&&&&&$&&&&&&&&&&&&&&&&&&&&&&&&&&&&&&&&&&&&&&&&&NNNNNNNNNNNNN",
"NNNNNNNNNNNN&&&&&&&&&&&&&&&&&&&&&&&&&&&&@gMMMMMMMMMxi7%%&&&&&&&&&&&&&&&&&&&&&&&&&&&&&&&&$&&&&&&&&&&&&&&&&&$&&&&&&&&*NNNNNNNNNNNN",
"NNNNNNNNNNNN&&&&&&&&&&&&&&&&&&&&&&&&&&&#=mMMMMMMMMMMMMa@&&&&&&&&&&&&&&&&&&&&&&&&&&&&&&&&&&&&&&&&$&&&&&&&&&&&&&&&&&&&NNNNNNNNNNNN",
"NNNNNNNNNNN&&&&&&&&&&&&&&&&&&&&&&&&&&&&+4MMMMMMMMMMMMMM-@&&&&&&&&&&&&&&&&&&&&&&&&&&&&&&&&&&&%&&&&&&&&&&&&&&&&&&&&&&&&NNNNNNNNNNN",
"NNNNNNNNNN&&&&&&&&$&&&&&&&&&&&&&&&&&&&&OtMMMMMMMMMMMMMx&#&&&&&&&$&&&&&&&&&&&&&&&&&&&&&&&&&&&&&&&&&&&&&&&&&&&&&&&&&&&&&NNNNNNNNNN",
"NNNNNNNNNN&&&&&&&&&&&&&&&&&&&&&&&&&&&&&@lMMMMMMMMMMMMMaO%&&&&&&&&&&&&&&&&&&&&&&&&$&&&&&&&&&&&&&&&&&&&&&&&&&&&&&&&&&&&&NNNNNNNNNN",
"NNNNNNNNN&&&&&&&&&&&&&&&&&&&&&&&&&&&&&@:MMMMMMMMMMMMMM7O&&&&&&&&&&&&&&&&&&&&&&&&&&&&&&&&&&&&&&&&&&&&&&&&&&&&&&&&&&&&&&&NNNNNNNNN",
"NNNNNNNN*&&&&&&&&&&&&&&&&&&&&&&&&&&&&&O8MMMMMMMMMMMMMM>@&&&&%&&&&&&&&&&&&&&&&%&&&&&&&&&&&&&$&&&&&&&&&&&&&&&&&&&&&&&&&&&&NNNNNNNN",
"NNNNNNNN&&&&&&&&&$&&&&&&&&&&&&&&%&&&&&+iMMMMMMMMMMMMMk@#&&&&&&&&&&&&&&&&&&&&&&&&&&&&&&&&&&&&&&&&&&&&&&&&&&&&&&&&&&&&&&&&NNNNNNNN",
"NNNNNNN&&&&&&&&&&&&&&&&&&&&&&&&&&&&&&%%cMMMMMMMMMMMMMyO&&&&&&&&&&&&&&&&&&&&&&&&&&&&&&&&&&&&&&&&&&&&&&&&&%&&&&&&&&&&&&&&&&NNNNNNN",
"NNNNNNN&&&&&&&&&&&&&&%&&&&&&&$&&&&&&&@,MMMMMMMMMMMMMM4O&&&&&&&&&%&&&&&%&&&&&&&&&&&$&&&&&@OO@#&&&&&&&&&&&&&&&&&&&&&&&&&&&&NNNNNNN",
"NNNNNN*&&&&&&&&&&&&&&&&&&&&&&&&&&&&&&OqMMMMMMMMMMMMMm-@&&&&&&&&&&&&&&&&&&&&&&&&&&&&&&&&@4ue,&+@@&&&&&&&&&&&&&&&&&&&&&&&&&&NNNNNN",
"NNNNNN&&&&&&&&&&&&&&&&&&&&&&&&&&&&&&&+dMMMMMMMMMMMMMh@&&&&&&&&&&&&&&&&&&&&&&&&&&&&&&&&@<MMMMci9>#O+@&&&&&&&&&&&%&&%&&&&&&*NNNNNN",
"NNNNNN&&&&&&&&&&&&&&&&&&&&&&&&&&&&&&#*bMMMMMMMMMMMMMro&&&&&&&&&&&&&&&&&&&&&&&&&&&&&&&&OiMMMMMMMmky5=@$&&&&&&&&&&&&&&&&&&&&NNNNNN",
"NNNNN&&&&&&&&&&&&&&&&&&&&&&&&&&&&&&&@2MMMMMMMMMMMMMM2@&&&&&&&&&&&&&&&&&&&&&&&&&&&&&&&##lMMMMMMMMMMMme@%&&&&&&&&&&&&&&&&&&&&NNNNN",
"NNNNN&&&&&&&&&&&&&&&&&&&&&&&&&&&&&&&OrMMMMMMMMMMMMMv*@&&&%&&&&&&&&&%&&&&&&&&&&&&&&&&&@:MMMMMMMMMMMMMM-@&&&&&&&&&&&&&&&&&&&&NNNNN",
"NNNN&&&&&&&&&&&&&&&&&&&&&&%&&&&&&&&&@jMMMMMMMMMMMMMsO&&&&&&&&&&&&&&&&&&&&&&&&&&&&&&&&O8MMMMMMMMMMMMMM;@&&&&&&&&&&&&&&&&&&&&*NNNN",
"NNNN&&&&&&&&&&&&&&&&&&&&&&&&&&&&&&&@-mMMMMMMMMMMMMM0O&&&&&&&&&&&&&&&&&&&%&&&&&&&&&&&&OaMMMMMMMMMMMMMl@&&&&&&&&&&&&&&&&&&&&&&NNNN",
"NNNN&&&&&&&&$&&&&&&&&&&&&&&&&&&&&&&@6MMMMMMMMMMMMMM>@&&&&&&&&&&&&&&&&&&&&&&&&&&&&&&&#&cMMMMMMMMMMMMMtO&&&&&&&&&&&&&&&&&&&&&&NNNN",
"NNN*&&&&&&&&&&&&&&&&&&&&&&&&&&&&&&&OyMMMMMMMMMMMMMx##&&&&&&&&&&&&&&&&&&&&&&&&&&&&&&&@<MMMMMMMMMMMMMM4O&&&&&&&&&&&&&&&&&&&&&&*NNN",
"NNN&&&&&&&&&&&&&%&&&&&&&&&&&&&&&&&##lMMMMMMMMMMMMMiO&&&&&&&&&&&&&&&&&&%&&&&&&&&&&&&&OwMMMMMMMMMMMMMm=@&&&&&&&%&&&&&&&&&&&&&&&NNN",
"NNN&&&&&&&&&&&&&&&&&&&&&&&&&&&&&&&@:MMMMMMMMMMMMMM7O&&&&&&&&&&&&&&&&&&&&&&&&&&&&&&%#@fMMMMMMMMMMMMMg@%&&&&&&&&&&&&&&&&&&&&&&&NNN",
"NNN&&&&&&&&&&&&$&&&&&&&&&&&%&&&&&&O8MMMMMMMMMMMMMm;@&&&&&&&&&&&&&&%&&%&&&&&&&&&&&&&@=nMMMMMMMMMMMMMeO&&&&&&&&&&&&&&&&&&&&&&&&NNN",
"NN&&&&&&&&&&&&&&&&&&&&&&&&&&&&&&&&@aMMMMMMMMMMMMMk@%&&&&&&&&&&&&&&&&&&&&&&&&&&%&&&&+3MMMMMMMMMMMMMM<@&&&&&&&&&&&&&&&&$&&&&&&&&NN",
"NN&&&&&&&&&&&&&&&&&&&&&&&&&&&&&&&#&cMMMMMMMMMMMMMtO&&&&&&&&&&&&&&&&&&&&&&&&&&&&&&&&OtMMMMMMMMMMMMMv&#%%&&&&&&&&&&&&&&&&&&&&&&&NN",
"NN*&&&&&&&&&&&&&&&&&&&&&&&&&&&&&&@<MMMMMMMMMMMMMM4+&&&&&&&&&%&&&&&&&&&&&&&&&&&&&&&#@jMMMMMMMMMMMMMs+&&&%&&&&&&&&&&&&&&&&&&&&&&NN",
"NN&&&&&&&&&&&&$&&&&&&&&&&####@@@@.wMMMMMMMMMMMMMn=@&&&&&&&&&&&&&&&&%&&&&&&&&&&&&&&@-mMMMMMMMMMMMMM7.@@OO+OOOOO@&&&&&&&&&&&&&&&NN",
"NN&&&&&&&&&&&&&&&&&&&&&$#&*=-;>>,>hMMMMMMMMMMMMMf@&&&&&&&&&&&&&&&&&&&&&&&&&&&&&&&&O7MMMMMMMMMMMMMM4>2246700wrt4@&&&&&&&&&&&&&&NN",
"N&&&&&&&&&&&&&&&&&&&&&&@pvvnmmmMMMMMMMMMMMMMMMMMeO&&&&&&&&&&&&%&&&&&&&&&&&&%&&&&&&OiMMMMMMMMMMMMMMMMMMMMMMMMMM0+&&&&&&&&&&&&&&&N",
"N*&&&&&&&&&&&&&&&&&&&&@-MMMMMMMMMMMMMMMMMMMMMMMM<@&&&&&&&&&&&&&&&&&&&&&&&&&&&&&&&##xMMMMMMMMMMMMMMMMMMMMMMMMMm=@&&&&&&&&&&&&&&*N",
"N&&&&&&&&&&&&&&&&&&&&&+0MMMMMMMMMMMMMMMMMMMMMMMc&%&&&&&&&&&&&&&&&&&&&&&&&&&%&&&&&@>MMMMMMMMMMMMMMMMMMMMMMMMMMs@&&&&&&&&&&&&&&&&N",
"N&&&&&&&&&&&&&&&&&&&&&@gMMMMMMMMMMMMMMMMMMMMMMMsO&&&&&&&&&&&&&&&&&&&&&&&&&&&&&&&&O0MMMMMMMMMMMMMMMMMMMMMMMMMM7O*&&&&&&&&&&&&&&&N",
"N&&&&&&&&&&&&&&&&&&&&@;mMMMMMMMMMMMMMMMMMMMMMMM0O&&&&&&&&&&&&&&&&&&&&&&&&&&&&&&&&OsMMMMMMMMMMMMMMMMMMMMMMMMMm=@&&&&&&&&&&&&&&&&N",
"N&&&&&&&&$&&&&&&&&&&&O0MMMMMMMMMMMMMMMMMMMMMMMM>@&&&&&&&&&&&&&&&&&&&&&&%&&&&&&&&#&vMMMMMMMMMMMMMMMMMMMMMMMMMsO&&&&&&&&&&&&&&&&&N",
"N&&&&&&&&&&&&&&&&&&&&@hMMMMMMMMMMMMMMMMMMMMMMMz@@&&&&&&&&&&&&&&&&&&&&&&&&&&&&&&&@<MMMMMMMMMMMMMMMMMMMMMMMMMM7+&&&&&&&&&&&&&&&&&N",
"N&&&&&&&&&&&&&&&&&&&@-bmvxzkhfsamMMMMMMMMMMMMMuO&&&&&&&&&&&&&&&&&&&&&&&&&&&&&&&&OeMMMMMMMMMMMMMmsaiutew07642&$&&&&&&&&&&&&&&&&&N",
"N$&&&&&&&&&&&&&&&&&&&&;=*&&@@@X=mMMMMMMMMMMMMM6@&&&&&&&&&&&&&&&&&&&&&&&&&&&&&&&$@gMMMMMMMMMMMMMfoOOOOOOOO+O@$&&&&&&&&&&&&&&&&&&N",
"N*&&&&&&&&&&&&&&&&&&&&@$###$&&O0MMMMMMMMMMMMMm-@&&&&&&&&&&&&&&&&&&&&&&&&&&&&&&##=nMMMMMMMMMMMMMwO&&&&&&$&&&&&&&&&&&&&&&&&&&&&&&N",
"N&&&&&&&&&&&&&&&&&&&&&&&&&&&&&+sMMMMMMMMMMMMMh@$&&&&&&&$&&&&&&&&&%&&&&&&&&&&&&&+4MMMMMMMMMMMMMM,@&&&&&&&&&&&&&&&&&&&&&&&&&&&$&&N",
"N&&&&&&&&&&&&&&&&&&&&&&&&&&&&%&vMMMMMMMMMMMMMtO&&&&&&%&&&&&&&&&&&&&&&&&&&&&&&&#OtMMMMMMMMMMMMMv&$&&&&&&&&&&&&&&&&&&&&&&&&&&&&&&N",
"N&&&&&&&&&&&&&&&&&&&&&%&&%%&&@<MMMMMMMMMMMMMM2@&&&&&&&&&&&&&$&&&&&&&&&&&&&&&&&##jMMMMMMMMMMMMMp+&&&&&&&&&&&&&&&&&&&&&&&&&&&&&&&N",
"N&%&&&&&&&&&&&&&&&&%@@@@@@@O@ eMMMMMMMMMMMMMb=@&&&&&&&&&&&&&&&&&&&&&&&&&&&&&&&@;MMMMMMMMMMMMMM5.OOOOOOOOO#&&&&&&&&&&&&&&&&&&&&&N",
"N&&&&&&&&&&&&&&&&&%*-->>><<444jMMMMMMMMMMMMMd@%&&&%&&&&&&&&&&&&&&&&&&&&&&&&&&&O7MMMMMMMMMMMMMM83770wertui>#&&&&&&&&&&&&&&&&&&&&N",
"N&&&&&&&&&&&&&&&&@-vmmMMMMMMMMMMMMMMMMMMMMMMwO&&&&&&&&&&&&&&&&&&&&&&&$&&&&&%&&OpMMMMMMMMMMMMMMMMMMMMMMMMM-#&&&&&&&&&&&&&&&&&&&&N",
"N&&&&&&&&&&&&&&&&O8MMMMMMMMMMMMMMMMMMMMMMMMM,+&&&&&&&&&&&&&&&&&&&&&&&&&&&&&&%##xMMMMMMMMMMMMMMMMMMMMMMMMd+&&&&&&&$&&&&&&&&&&&&&N",
"N&&&&&&&&&&&&&&&&@fMMMMMMMMMMMMMMMMMMMMMMMMv*#&&&&&&&&&&&&&&&&&&&&&&&&&&&&&&%@,MMMMMMMMMMMMMMMMMMMMMMMMM7+&&&&&&&&&&&&&&&&&&&&&N",
"N&&&&&&&&&&&&&&&@-mMMMMMMMMMMMMMMMMMMMMMMMMg@&&&&&&%&&&&&&&&&&&&&&&&&&%&&&&&&OqMMMMMMMMMMMMMMMMMMMMMMMMm=#&&&&&$&&&&&&&&&&&&&&&N",
"N*&&&&&&&&&&&&&&O0MMMMMMMMMMMMMMMMMMMMMMMMMaO&&&&&&&&&&&&&&&&&&&&&&&&&&&&&&&&+sMMMMMMMMMMMMMMMMMMMMMMMMsO&&&&&&&&&&&&&&&&&&&&&&N",
"NN&&&&&&&&&&&&&&@fMMMMMMMMMMMMMMMMMMMMMMMMMtO&&&&&&&&&&&&&$&&&&&&&&&&&&&&&&&#*vMMMMMMMMMMMMMMMMMMMMMMMM7O&&&&&&&&&&&&&&&&&&&&&NN",
"NN&&&&&&&&&&&&&@>MMMMMMMMMMMMMMMMMMMMMMMMMMeO&&&&&&&&&&&&&&&&&&&&&&&&&&&&&&&+<MMMMMMMMMMMMMMMMMMMMMMMMv=#&&&&&&&&&&&&&&&&&&&&&NN",
"NN&&&&&&&&&&&&&O7mckkhfsaittevMMMMMMMMMMMMMr+&&&&&&&&&&&&&&&&&&&&&&&&&&&&&&&OeMMMMMMMMMMMMMmytrw07641<;#$&&&&&&&&&&&&&&&&&&&&&NN",
"NN&&&&&&&&&&&&&&&*&%@@@@+O+O.jMMMMMMMMMMMMMtO&&&&&&&&&&&&&&&&&&&&%&&&&&&&&&&+jMMMMMMMMMMMMMs.OOOOOO@@@@&&&&&&&&&&&&&&&&&&&&&&*NN",
"NN&&&&&&&&&&&&&&%##%%$&&&&&&@dMMMMMMMMMMMMMsO#&&&&&&&&&&&&&&&&&&&&&&&&&&&&&@-mMMMMMMMMMMMMM0O&&&&&&&#&&&&&&&&&&&&&&&&&&&&&&&&&NN",
"NNN&&&&&&&&&&&&&&&&&&&&&&&&&OyMMMMMMMMMMMMMx##&&&&&&%&&&&&&&&&&&&&&&&&&&&&&O6MMMMMMMMMMMMMM,@&&&&&&&%&&&&&&&&&&&&&&&&&&&&&&&&NNN",
"NNN&&&&&&&&&&&&&&&&&&&&&&&&&+8MMMMMMMMMMMMMM<O&&&&&&&&&&&&&&&&&&&&%&&&&&&&&OaMMMMMMMMMMMMMx&#&&&&&&&&&&&&&&&&&&&&&&&&&&&&&&&&NNN",
"NNN&&&&&&&&&&&&&&&&&&&&&&&&&@>MMMMMMMMMMMMMMaO&&&&&&&&&&&&&&&&&&&&&&&&&&&&@=nMMMMMMMMMMMMMiO&&&&&&&&&&&&&&&&&&&&&&&&&&&&&&&&&NNN",
"NNN*&&&&&&&&&&&&&&&&&&&%&&&&#&xMMMMMMMMMMMMMm>+&&&&&&&&&&&&&&&&&&&&&&&&&&&O0MMMMMMMMMMMMMM7+&&&&&&&&&&&&&&&&&&&&&&&&&&&&&&&&&NNN",
"NNNN&&&&&&&&&&&&&&&&&&&&&&&&&OyMMMMMMMMMMMMMMgO#&&&&&&&&&&&&&&&&&&&&&&&&&#%xMMMMMMMMMMMMMM>@&&&&&%&&&&&&&&&&&&&$&&&&&&&&&&&&NNNN",
"NNNN&&&&&&&&&&&&&&&%&&&&&&&&&+<MMMMMMMMMMMMMMMyO#&&&&&&&&&&&&&&&&&&&&&&&&oeMMMMMMMMMMMMMMk@&&&&&&&&&&&&&&&&&&&&&&&&&&&&&&&&&NNNN",
"NNNN&&&&&&&&&&&&&&&&&&&&&&&&&&@jMMMMMMMMMMMMMMMrO@&&&&&&&&&&&&&&&&&&&&&&O>mMMMMMMMMMMMMMMrO&&&&&&&&&$&&&&&&&&&&&&&&&&&&&&&&*NNNN",
"NNNNN*&&$&&&&&&&&&&&&&&&&%&&&&+6MMMMMMMMMMMMMMMMi%O&&&&&&&&&&&$&&&&&&&&+&cMMMMMMMMMMMMMMM,@&&&&&&&&&&&&&&&&&&&&&&&&&&&&&&&&NNNNN",
"NNNNN&&&&&&&&&&&&&&&&&&&&&&&&&#+hMMMMMMMMMMMMMMMMx4@O@&&&&&&&&&&&&&&&#O=lMMMMMMMMMMMMMMMj@$&&&&&&&&&&&&&&&&&&&&&&&&&$&&&&&&NNNNN",
"NNNNNN&&&&&&&&&&&&&$&&&&&&&&&&&@>mMMMMMMMMMMMMMMMMMh5%O+#$&&%%&%%&%#OO4cMMMMMMMMMMMMMMMM7O&&&&&&&&&&&&&&&&&&&&&&&&&&&&&&&&NNNNNN",
"NNNNNN&&&&&&&&&&&&&&&&&&&&&&&&&&OeMMMMMMMMMMMMMMMMMMMxt2&+OO@@@@++O#2dMMMMMMMMMMMMMMMMMx%#&&&&&&&&&&&&&&&&&&&&&&&&&&&&&&&&NNNNNN",
"NNNNNN&&&&&&&&&&&&&&&&&&&&&&&&&&$@dMMMMMMMMMMMMMMMMMMMMMvdt72<<<<8ylMMMMMMMMMMMMMMMMMMM6O&&&&%&&&&&&&&&&&&&&&&&&&&&&&&&&&&NNNNNN",
"NNNNNNN&&&&&&&&&&&&&&&&&&&&&&&&&&@&xMMMMMMMMMMMMMMMMMMMMMMMMMMMMMMMMMMMMMMMMMMMMMMMMMMg@&&&&&&&&&&&%&&&&&&&&&&&&&&&&&&&&&NNNNNNN",
"NNNNNNN*&&&$&&&&&&&&&&&&&&&&&&&&&&@=xMMMMMMMMMMMMMMMMMMMMMMMMMMMMMMMMMMMMMMMMMMMMMMMMm;@&&&&&&&&&&&&&&&&&&&&&&&&&&&&&&&&*NNNNNNN",
"NNNNNNNN&&&&&&&&&&&&&%&&&&&&&&&&&&&@=lMMMMMMMMMMMMMMMMMMMMMMMMMMMMMMMMMMMMMMMMMMMMMMM7O&&&&&&&&&&&&&&&&%&&&&&&&&&&&&&&&*NNNNNNNN",
"NNNNNNNN&&&&&&&&&&&&&&&&&&&&&&&&&&&&@&dMMMMMMMMMMMMMMMMMMMMMMMMMMMMMMMMMMMMMMMMMMMMMtO&&&&&&&&&&&&&&&&&&$&&&&&&&&&&&&&&&NNNNNNNN",
"NNNNNNNNN&&&&&&&&&&&&&&&&&&&&&&&&&&&&@@wMMMMMMMMMMMMMMMMMMMMMMMMMMMMMMMMMMMMMMMMMMMiO#&&&&&&&&&&&&&&&&&&&&&&&&&&&&&&&&&NNNNNNNNN",
"NNNNNNNNNN&&&&&&&&&&&&&&&&&&&&&&&&&&&&$O,hMMMMMMMMMMMMMMMMMMMMMMMMMMMMMMMMMMMMMMMMy+$&&&&&&&&&&&&%&&&&&&&&&&&&&&&&&&&&NNNNNNNNNN",
"NNNNNNNNNN*&&&&&&&&&&&&&&&&&&&&&&&&&&&&&@@0vMMMMMMMMMMMMMMMMMMMMMMMMMMMMMMMMMMMMM0O#&&&&&&&&&&&&&&&&&&&&&&&&&&&&&&&&&*NNNNNNNNNN",
"NNNNNNNNNNN*&&&$&&&&&&&&&&&&&&&&&&&&&&&&&&O&wvMMMMMMMMMMMMMMMMMMMMMMMMMMMMMMMMMl,O$&&&&&&&&&&&&&&&&&&%&&&&&&&&&&&&&&&NNNNNNNNNNN",
"NNNNNNNNNNNN&&&&&&&&$&&&&&&&&&&&&&&&$&&&&&&@O&7fmMMMMMMMMMMMMMMMMMMMMMMMMMMMMme#+&&&&&&&&&&&&&&&&&&&&&&&&&&&&&&&&&&&NNNNNNNNNNNN",
"NNNNNNNNNNNN&&&&&&&&&&&&&&&&&&&&&&&&&&&&&&&&&%+@>ekmMMMMMMMMMMMMMMMMMMMMMMMbt-O#&&&&&&&&&&&&&&&&&&&&&&&&&&&&&&&&&&&&NNNNNNNNNNNN",
"NNNNNNNNNNNNN&&&&&&&&&&&&&&&&&&&&&&&&&&&&&&&&&&&@O@;7uxmMMMMMMMMMMMMMMMMbd8*O@&&&&&&&&&&&&&&&&&&&&&&&&&&&&&&&&&&&&&NNNNNNNNNNNNN",
"NNNNNNNNNNNNNN&&&&&&&&&&&&&&&&&&&&&&&&&&&&&&&&&&&&&@++#;4esjvbmmMmmvlse2*@O#&&&&&&&&&&&&&&&&&&&&&&&&&&&&&&&&&&&&&&NNNNNNNNNNNNNN",
"NNNNNNNNNNNNNN&&&&&&&&&&&&&&$&&&&&&&&&&&&&&&&&&&&&&&&&%@@OO@&=-::--*@@O@@&&&&&&&&&&&$&&&&&&&&&&&&&&&&&&&&&&&&&&&&&NNNNNNNNNNNNNN",
"NNNNNNNNNNNNNNN*&&&&&&&&&&&&&&&&&&&&&&&&&&&&&&&&&&&&&&&&&&&$##@@@@##&&&&&&&&&&&&&&&&&&&&&&&&&&&&&&%&&&&&&&&&&&&&*NNNNNNNNNNNNNNN",
"NNNNNNNNNNNNNNNN&&&&&&&&&&&&&&&&&&&&&&&$&&&&&&&&&&&&&&&&&&&&&&&&&&&&&&&&&&&&&&&$&&&&&&&&&&&&&&&&&&&&&&&&&&&&&&&&NNNNNNNNNNNNNNNN",
"NNNNNNNNNNNNNNNNN&&&&&&&&&&&&&&&&&&&&&&&&&&&&&&&&&&&&&&&&&&&&&&&&&&&&&&&&&&&&&&&&&&&&&&&&&&&&&&&&&&&&&&&&&&&&&&NNNNNNNNNNNNNNNNN",
"NNNNNNNNNNNNNNNNNN&&&&&&&&&&&&&&&&&&&&&&&&&&&&&&&&&&&%&&&&&&&&&&&&&&&&&&&&&&&&&&&&&&&&&&&&&&&&&&&&&&&&&&&&&&&&NNNNNNNNNNNNNNNNNN",
"NNNNNNNNNNNNNNNNNNN*&&&&&&&&&&&&&&&&&&&&&&&&&&&&&&&&&&&&&&&&&&&&&&&&&&&&&&&&&&&&&&&&&&&&&&&&&&&&&&&&&&&&&&&&&NNNNNNNNNNNNNNNNNNN",
"NNNNNNNNNNNNNNNNNNNN&&&&&&&&&&&&&&&&&&&&&&&&&$&&&&&&&&&&&&&&&&&&&&&&&&&&&&&&&&&&&&&&&&&&&&&&&&&&&&&&&&&$&&&&NNNNNNNNNNNNNNNNNNNN",
"NNNNNNNNNNNNNNNNNNNNN&&&&&&&&&$&&&&&&&$&&&&&&&&&&&&&&&&&&&&&&&&&&&&&&&&&&&&&&&$&&&&&&&&&&&&&&&&&&&&&&&&&&&&NNNNNNNNNNNNNNNNNNNNN",
"NNNNNNNNNNNNNNNNNNNNNN&&&&&&&&&&&&&&&&&&&&&&&&&&&&&&&&&&&&&&&&&&&&&&&&&&&&&&&&&&&&&&&&&&&&&&&&&&&&&&&&&&&&NNNNNNNNNNNNNNNNNNNNNN",
"NNNNNNNNNNNNNNNNNNNNNNN&&&&&&&&&&&&&&&&&&&&&&&&&&&&&&&%&&&&&&&&&&&&&&&&&&&&&&&&&&&&&&&&&&&&&&&&&&&&&&&&&&NNNNNNNNNNNNNNNNNNNNNNN",
"NNNNNNNNNNNNNNNNNNNNNNNN*&&&&&&&&&&&&&&&&&&&&&&&&&&&&&&&&&&&&&&&&&&&&&&&&&&&&&&&&&&&&&&&&&&&&&&&&&&&&&&*NNNNNNNNNNNNNNNNNNNNNNNN",
"NNNNNNNNNNNNNNNNNNNNNNNNNN&&&&&&&&&&&&&&&&&&&&&&&&&&&&&&&&&&&&&&&&&&&&&&&&&&&&&&&&&&&&&&&&&&&&&&&&&&&&NNNNNNNNNNNNNNNNNNNNNNNNNN",
"NNNNNNNNNNNNNNNNNNNNNNNNNNN&&&&&&&&&&&&&&&&&&&&&&&&&&&&&&&&&&&&&&&&&&&&&&&&%&&&&&&&&&&&&&&&&&&&&&&&&&NNNNNNNNNNNNNNNNNNNNNNNNNNN",
"NNNNNNNNNNNNNNNNNNNNNNNNNNNNN&&&&&&&&&&&&&&&&&&&&&&&&&&&&&&$&&&&&&&&&&%&&&&&&&&&&&&&&&&&&&&&&&&&&&&NNNNNNNNNNNNNNNNNNNNNNNNNNNNN",
"NNNNNNNNNNNNNNNNNNNNNNNNNNNNNN&&&&&&&&&&&&&&&&&&%&&&&&&&&&&&&&&&&%&&&&&&&&&&&&&%&&&&&&&&&&&&&&&&&&NNNNNNNNNNNNNNNNNNNNNNNNNNNNNN",
"NNNNNNNNNNNNNNNNNNNNNNNNNNNNNNNN&&&&&&&&&&&&&&&&&&&&&&&&&&&&&&&&&&&&&&&&&&&&&&&&&&&&&&&&&&&&&&&&NNNNNNNNNNNNNNNNNNNNNNNNNNNNNNNN",
"NNNNNNNNNNNNNNNNNNNNNNNNNNNNNNNNN*&&&&&&&&&&&&&&&&&&&&&&&&&&&&&&&&&&&&&&&&&&&&&&&&&&&&&&&&&$&&&NNNNNNNNNNNNNNNNNNNNNNNNNNNNNNNNN",
"NNNNNNNNNNNNNNNNNNNNNNNNNNNNNNNNNNN&&&&&&&&&&&&&&&&&&&&&&&&&&&&&&&&&&&&&&&&&&&&&&&&&&&&&&&&&*NNNNNNNNNNNNNNNNNNNNNNNNNNNNNNNNNNN",
"NNNNNNNNNNNNNNNNNNNNNNNNNNNNNNNNNNNNN*&&&&&&&&&&&&%&&&&&&&&&&&&&&&&&&&&&&%&&&&&&&&&&&&&&&&*NNNNNNNNNNNNNNNNNNNNNNNNNNNNNNNNNNNNN",
"NNNNNNNNNNNNNNNNNNNNNNNNNNNNNNNNNNNNNNNN&&&&&&&&&&&&&&&&&&&&&&&&&&&&&&&&&&&&&%&&&&&&&&&&NNNNNNNNNNNNNNNNNNNNNNNNNNNNNNNNNNNNNNNN",
"NNNNNNNNNNNNNNNNNNNNNNNNNNNNNNNNNNNNNNNNNN*&&&&&&&&&&&&&&&&&&&&&&&&&&&&&&&&&&&&&&&&&&*NNNNNNNNNNNNNNNNNNNNNNNNNNNNNNNNNNNNNNNNNN",
"NNNNNNNNNNNNNNNNNNNNNNNNNNNNNNNNNNNNNNNNNNNNN&&&&&&&&&&&&&&&&&&&&&&&&&&&&&&&&&&&&&*NNNNNNNNNNNNNNNNNNNNNNNNNNNNNNNNNNNNNNNNNNNNN",
"NNNNNNNNNNNNNNNNNNNNNNNNNNNNNNNNNNNNNNNNNNNNNNNNN*&&&&&&&&&&&&&&&&&&&&&&&&&&&&*NNNNNNNNNNNNNNNNNNNNNNNNNNNNNNNNNNNNNNNNNNNNNNNNN",
"NNNNNNNNNNNNNNNNNNNNNNNNNNNNNNNNNNNNNNNNNNNNNNNNNNNNNN&&&*&&&&&&&&&&&&*&&&NNNNNNNNNNNNNNNNNNNNNNNNNNNNNNNNNNNNNNNNNNNNNNNNNNNNNN",
"NNNNNNNNNNNNNNNNNNNNNNNNNNNNNNNNNNNNNNNNNNNNNNNNNNNNNNNNNNNNNNNNNNNNNNNNNNNNNNNNNNNNNNNNNNNNNNNNNNNNNNNNNNNNNNNNNNNNNNNNNNNNNNNN"
};
